<svg width="24" height="24" viewBox="0 0 24 24" fill="none" xmlns="http://www.w3.org/2000/svg">
<path d="M23.0769 5.53845H0.923077C0.413538 5.53845 0 5.95199 0 6.46153V23.0769C0 23.5865 0.413538 24 0.923077 24H23.0769C23.5865 24 24 23.5865 24 23.0769V6.46153C24 5.95199 23.5865 5.53845 23.0769 5.53845ZM22.1538 22.1538H1.84615V7.38461H22.1538V22.1538Z" fill="#A7BED3"/>
<path d="M2.76921 4.61544H21.2307C21.7403 4.61544 22.1538 4.2019 22.1538 3.69236C22.1538 3.18283 21.7403 2.76929 21.2307 2.76929H2.76921C2.25967 2.76929 1.84613 3.18283 1.84613 3.69236C1.84613 4.2019 2.25967 4.61544 2.76921 4.61544Z" fill="#A7BED3"/>
<path d="M4.6154 1.84615H19.3846C19.8942 1.84615 20.3077 1.43262 20.3077 0.923077C20.3077 0.413538 19.8942 0 19.3846 0H4.6154C4.10586 0 3.69232 0.413538 3.69232 0.923077C3.69232 1.43262 4.10586 1.84615 4.6154 1.84615Z" fill="#A7BED3"/>
<path d="M8.30772 15.6923H15.6923C16.2019 15.6923 16.6154 15.2788 16.6154 14.7693C16.6154 14.2597 16.2019 13.8462 15.6923 13.8462H8.30772C7.79818 13.8462 7.38464 14.2597 7.38464 14.7693C7.38464 15.2788 7.79818 15.6923 8.30772 15.6923Z" fill="#A7BED3"/>
</svg>
