<svg width="24" height="24" viewBox="0 0 24 24" fill="none" xmlns="http://www.w3.org/2000/svg">
<path d="M20.5754 0.959999H19.1833V2.51025C19.1833 4.48817 17.5128 6.09188 15.4524 6.09188H8.54756C6.48724 6.09188 4.81671 4.48817 4.81671 2.51025V0.959999H3.42459C1.53132 0.959999 0 2.43007 0 4.24761V20.7124C0 22.5299 1.53132 24 3.42459 24H20.5754C22.4687 24 24 22.5299 24 20.7124V4.24761C24 2.4568 22.4687 0.959999 20.5754 0.959999ZM17.0394 12.6938L11.6659 17.8524C11.3875 18.093 11.0534 18.2534 10.6636 18.2534C10.3016 18.2534 9.93968 18.1197 9.66125 17.8524L6.96056 15.2598C6.40371 14.7252 6.40371 13.8699 6.96056 13.3353C7.5174 12.8007 8.40835 12.8007 8.9652 13.3353L10.6636 14.9658L15.0348 10.7694C15.5916 10.2348 16.4826 10.2348 17.0394 10.7694C17.5963 11.3039 17.5963 12.186 17.0394 12.6938Z" fill="#A7BED3"/>
<path d="M8.81898 3H15.1822C15.6422 3 16 2.76536 16 2.46369V0.536313C16 0.234637 15.6422 0 15.1822 0H8.81898C8.35898 0 8.00121 0.234637 8.00121 0.536313V2.44693C7.97565 2.76536 8.35898 3 8.81898 3Z" fill="#A7BED3"/>
</svg>
