<svg width="24" height="24" viewBox="0 0 24 24" fill="none" xmlns="http://www.w3.org/2000/svg">
<path d="M7.62625 8.33757L4.64024 11.5162L7.60403 14.6949C7.75187 14.8513 7.85111 15.0473 7.88969 15.2591C7.92827 15.4708 7.90453 15.6892 7.82135 15.8878C7.73817 16.0863 7.59914 16.2564 7.42114 16.3774C7.24314 16.4984 7.03382 16.5652 6.81862 16.5695C6.66664 16.5698 6.51627 16.5384 6.37717 16.4771C6.23808 16.4159 6.11335 16.3262 6.01099 16.2138L2.30626 12.2572C2.10971 12.0517 2 11.7783 2 11.494C2 11.2097 2.10971 10.9363 2.30626 10.7308L6.01099 6.79641C6.10739 6.67813 6.2271 6.58097 6.36269 6.51098C6.49827 6.44098 6.64681 6.39966 6.79906 6.38957C6.9513 6.37949 7.104 6.40086 7.24763 6.45236C7.39126 6.50385 7.52274 6.58437 7.6339 6.6889C7.74505 6.79342 7.8335 6.91972 7.89372 7.05992C7.95394 7.20011 7.98464 7.3512 7.98393 7.50378C7.98321 7.65637 7.95108 7.80716 7.88955 7.94679C7.82801 8.08641 7.73839 8.21187 7.62625 8.31535V8.33757ZM21.7042 10.7531L17.9995 6.81863C17.9031 6.70036 17.7834 6.6032 17.6478 6.53321C17.5122 6.46321 17.3637 6.42189 17.2114 6.4118C17.0592 6.40171 16.9065 6.42309 16.7629 6.47458C16.6192 6.52608 16.4877 6.6066 16.3766 6.71113C16.2654 6.81565 16.177 6.94195 16.1168 7.08214C16.0566 7.22234 16.0258 7.37343 16.0266 7.52601C16.0273 7.67859 16.0594 7.82939 16.1209 7.96902C16.1825 8.10864 16.2721 8.2341 16.3842 8.33757L19.348 11.5162L16.3842 14.6949C16.2352 14.8527 16.1356 15.0507 16.0978 15.2645C16.06 15.4783 16.0856 15.6984 16.1715 15.8978C16.2574 16.0972 16.3998 16.267 16.5811 16.3864C16.7625 16.5058 16.9748 16.5694 17.1919 16.5695C17.3438 16.5698 17.4942 16.5384 17.6333 16.4771C17.7724 16.4159 17.8971 16.3262 17.9995 16.2138L21.7042 12.2794C21.8943 12.0751 22 11.8064 22 11.5273C22 11.2483 21.8943 10.9796 21.7042 10.7753V10.7531ZM14.0132 6.07028C13.7371 5.96713 13.4313 5.97788 13.1632 6.10016C12.895 6.22244 12.6864 6.44623 12.5832 6.72231L9.33784 15.5396C9.28708 15.6762 9.26388 15.8216 9.2696 15.9673C9.27531 16.1129 9.30982 16.256 9.37113 16.3883C9.43244 16.5205 9.51933 16.6394 9.6268 16.7379C9.73427 16.8364 9.86019 16.9126 9.99728 16.9622C10.1197 17.0117 10.2505 17.0369 10.3826 17.0363C10.6114 17.0335 10.8339 16.9611 11.0205 16.8288C11.2072 16.6964 11.349 16.5103 11.4273 16.2953L14.6726 7.47808C14.7706 7.20388 14.7562 6.9021 14.6327 6.63843C14.5092 6.37476 14.2866 6.17056 14.0132 6.07028Z" fill="#A7BED3"/>
</svg>
