<svg width="18" height="18" viewBox="0 0 18 18" fill="none" xmlns="http://www.w3.org/2000/svg">
<path d="M11.17 0H2C0.9 0 0 0.9 0 2V16C0 17.1 0.9 18 2 18H16C17.1 18 18 17.1 18 16V6.83C18 6.3 17.79 5.79 17.41 5.42L12.58 0.59C12.21 0.21 11.7 0 11.17 0ZM5 12H13C13.55 12 14 12.45 14 13C14 13.55 13.55 14 13 14H5C4.45 14 4 13.55 4 13C4 12.45 4.45 12 5 12ZM5 8H13C13.55 8 14 8.45 14 9C14 9.55 13.55 10 13 10H5C4.45 10 4 9.55 4 9C4 8.45 4.45 8 5 8ZM5 4H10C10.55 4 11 4.45 11 5C11 5.55 10.55 6 10 6H5C4.45 6 4 5.55 4 5C4 4.45 4.45 4 5 4Z" fill="#65B9F4"/>
</svg>
