<svg width="24" height="25" viewBox="0 0 24 25" fill="none" xmlns="http://www.w3.org/2000/svg">
<path d="M0.795923 16.8682C0.611723 16.8732 0.43458 16.9411 0.293213 17.0609C0.151847 17.1807 0.0545438 17.3454 0.0170799 17.5283C-0.0203839 17.7112 0.00418758 17.9015 0.0868108 18.0685C0.169434 18.2354 0.305265 18.3692 0.472283 18.4481L11.6464 23.9735C11.7578 24.0285 11.8801 24.057 12.0041 24.057C12.128 24.057 12.2503 24.0285 12.3618 23.9735L23.5359 18.4481C23.6331 18.4008 23.7201 18.3344 23.7919 18.2529C23.8637 18.1714 23.9189 18.0763 23.9544 17.9731C23.9899 17.8699 24.0049 17.7606 23.9986 17.6515C23.9923 17.5424 23.9648 17.4356 23.9177 17.3373C23.8707 17.239 23.8049 17.1511 23.7242 17.0786C23.6435 17.0061 23.5495 16.9505 23.4475 16.915C23.3456 16.8794 23.2377 16.8646 23.1301 16.8714C23.0225 16.8782 22.9173 16.9064 22.8205 16.9546L12.0041 22.3073L1.1877 16.9546C1.0662 16.8933 0.931558 16.8636 0.795923 16.8682Z" fill="#8E51F2"/>
<path d="M0.795923 13.0005C0.611723 13.0054 0.43458 13.0733 0.293213 13.1932C0.151847 13.313 0.0545438 13.4777 0.0170799 13.6605C-0.0203839 13.8434 0.00418758 14.0338 0.0868108 14.2007C0.169434 14.3677 0.305265 14.5015 0.472283 14.5804L11.6464 20.1057C11.7578 20.1607 11.8801 20.1893 12.0041 20.1893C12.128 20.1893 12.2503 20.1607 12.3618 20.1057L23.5359 14.5804C23.6331 14.533 23.7201 14.4667 23.7919 14.3852C23.8637 14.3037 23.9189 14.2086 23.9544 14.1054C23.9899 14.0022 24.0049 13.8929 23.9986 13.7838C23.9923 13.6747 23.9648 13.5679 23.9177 13.4696C23.8707 13.3713 23.8049 13.2833 23.7242 13.2109C23.6435 13.1384 23.5495 13.0828 23.4475 13.0472C23.3456 13.0116 23.2377 12.9968 23.1301 13.0036C23.0225 13.0104 22.9173 13.0387 22.8205 13.0868L12.0041 18.4395L1.1877 13.0868C1.0662 13.0255 0.931558 12.9958 0.795923 13.0005Z" fill="#A7BED3"/>
<path d="M11.9019 3.00637C11.8068 3.01872 11.7145 3.04795 11.6294 3.0927L0.455252 8.89435C0.321082 8.96382 0.208455 9.06951 0.1298 9.19977C0.0511457 9.33003 0.00952148 9.4798 0.00952148 9.63252C0.00952148 9.78524 0.0511457 9.935 0.1298 10.0653C0.208455 10.1955 0.321082 10.3012 0.455252 10.3707L11.6294 16.1723C11.7452 16.2329 11.8737 16.2645 12.0041 16.2645C12.1345 16.2645 12.263 16.2329 12.3788 16.1723L23.5529 10.3707C23.6871 10.3012 23.7997 10.1955 23.8784 10.0653C23.957 9.935 23.9987 9.78524 23.9987 9.63252C23.9987 9.4798 23.957 9.33003 23.8784 9.19977C23.7997 9.06951 23.6871 8.96382 23.5529 8.89435L12.3788 3.0927C12.2321 3.01575 12.0658 2.98565 11.9019 3.00637ZM12.0041 4.76758L21.3811 9.63682L12.0041 14.4974L2.62706 9.63682L12.0041 4.76758Z" fill="#A7BED3"/>
<path d="M0.6 3.6H2.4V5.4C2.4 5.7312 2.6688 6 3 6C3.3312 6 3.6 5.7312 3.6 5.4V3.6H5.4C5.7312 3.6 6 3.3312 6 3C6 2.6688 5.7312 2.4 5.4 2.4H3.6V0.6C3.6 0.2688 3.3312 0 3 0C2.6688 0 2.4 0.2688 2.4 0.6V2.4H0.6C0.2688 2.4 0 2.6688 0 3C0 3.3312 0.2688 3.6 0.6 3.6Z" fill="#A7BED3"/>
</svg>
