<svg width="24" height="24" viewBox="0 0 24 24" fill="none" xmlns="http://www.w3.org/2000/svg">
<path d="M0.795923 12.9435C0.611723 12.9484 0.43458 13.0163 0.293213 13.1361C0.151847 13.256 0.0545438 13.4206 0.0170799 13.6035C-0.0203839 13.7864 0.00418758 13.9768 0.0868108 14.1437C0.169434 14.3107 0.305265 14.4445 0.472283 14.5234L11.6464 20.0487C11.7578 20.1037 11.8801 20.1323 12.0041 20.1323C12.128 20.1323 12.2503 20.1037 12.3618 20.0487L23.5359 14.5234C23.6331 14.476 23.7201 14.4097 23.7919 14.3282C23.8637 14.2466 23.9189 14.1516 23.9544 14.0484C23.9899 13.9451 24.0049 13.8359 23.9986 13.7268C23.9923 13.6177 23.9648 13.5109 23.9177 13.4126C23.8707 13.3143 23.8049 13.2263 23.7242 13.1539C23.6435 13.0814 23.5495 13.0258 23.4475 12.9902C23.3456 12.9546 23.2377 12.9398 23.1301 12.9466C23.0225 12.9534 22.9173 12.9817 22.8205 13.0298L12.0041 18.3825L1.1877 13.0298C1.0662 12.9685 0.931558 12.9388 0.795923 12.9435ZM0.795923 16.8112C0.611723 16.8162 0.43458 16.8841 0.293213 17.0039C0.151847 17.1237 0.0545438 17.2884 0.0170799 17.4713C-0.0203839 17.6542 0.00418758 17.8445 0.0868108 18.0115C0.169434 18.1784 0.305265 18.3122 0.472283 18.3911L11.6464 23.9165C11.7578 23.9715 11.8801 24 12.0041 24C12.128 24 12.2503 23.9715 12.3618 23.9165L23.5359 18.3911C23.6331 18.3438 23.7201 18.2774 23.7919 18.1959C23.8637 18.1144 23.9189 18.0193 23.9544 17.9161C23.9899 17.8129 24.0049 17.7036 23.9986 17.5945C23.9923 17.4854 23.9648 17.3786 23.9177 17.2803C23.8707 17.182 23.8049 17.0941 23.7242 17.0216C23.6435 16.9491 23.5495 16.8935 23.4475 16.8579C23.3456 16.8224 23.2377 16.8076 23.1301 16.8144C23.0225 16.8212 22.9173 16.8494 22.8205 16.8976L12.0041 22.2503L1.1877 16.8976C1.0662 16.8363 0.931558 16.8066 0.795923 16.8112Z" fill="#A7BED3"/>
<path d="M11.9019 3.00637C11.8068 3.01872 11.7145 3.04795 11.6294 3.0927L0.455252 8.89435C0.321082 8.96382 0.208455 9.06951 0.1298 9.19977C0.0511457 9.33003 0.00952148 9.4798 0.00952148 9.63252C0.00952148 9.78524 0.0511457 9.935 0.1298 10.0653C0.208455 10.1955 0.321082 10.3012 0.455252 10.3707L11.6294 16.1723C11.7452 16.2329 11.8737 16.2645 12.0041 16.2645C12.1345 16.2645 12.263 16.2329 12.3788 16.1723L23.5529 10.3707C23.6871 10.3012 23.7997 10.1955 23.8784 10.0653C23.957 9.935 23.9987 9.78524 23.9987 9.63252C23.9987 9.4798 23.957 9.33003 23.8784 9.19977C23.7997 9.06951 23.6871 8.96382 23.5529 8.89435L12.3788 3.0927C12.2321 3.01575 12.0658 2.98565 11.9019 3.00637ZM12.0041 4.76758L21.3811 9.63682L12.0041 14.4974L2.62706 9.63682L12.0041 4.76758Z" fill="#FFB054"/>
<path d="M0.6 3.6H2.4V5.4C2.4 5.7312 2.6688 6 3 6C3.3312 6 3.6 5.7312 3.6 5.4V3.6H5.4C5.7312 3.6 6 3.3312 6 3C6 2.6688 5.7312 2.4 5.4 2.4H3.6V0.6C3.6 0.2688 3.3312 0 3 0C2.6688 0 2.4 0.2688 2.4 0.6V2.4H0.6C0.2688 2.4 0 2.6688 0 3C0 3.3312 0.2688 3.6 0.6 3.6Z" fill="#A7BED3"/>
</svg>
