<svg width="24" height="25" viewBox="0 0 24 25" fill="none" xmlns="http://www.w3.org/2000/svg">
<path d="M0.795923 16.8683C0.611723 16.8733 0.43458 16.9412 0.293213 17.061C0.151847 17.1808 0.0545438 17.3455 0.0170799 17.5283C-0.0203839 17.7112 0.00418758 17.9016 0.0868108 18.0685C0.169434 18.2355 0.305265 18.3693 0.472283 18.4482L11.6464 23.9735C11.7578 24.0285 11.8801 24.0571 12.0041 24.0571C12.128 24.0571 12.2503 24.0285 12.3618 23.9735L23.5359 18.4482C23.6331 18.4008 23.7201 18.3345 23.7919 18.253C23.8637 18.1715 23.9189 18.0764 23.9544 17.9732C23.9899 17.87 24.0049 17.7607 23.9986 17.6516C23.9923 17.5425 23.9648 17.4357 23.9177 17.3374C23.8707 17.2391 23.8049 17.1511 23.7242 17.0787C23.6435 17.0062 23.5495 16.9506 23.4475 16.915C23.3456 16.8794 23.2377 16.8646 23.1301 16.8714C23.0225 16.8782 22.9173 16.9065 22.8205 16.9546L12.0041 22.3073L1.1877 16.9546C1.0662 16.8933 0.931558 16.8637 0.795923 16.8683Z" fill="#A7BED3"/>
<path d="M0.795923 13.0005C0.611723 13.0055 0.43458 13.0734 0.293213 13.1932C0.151847 13.313 0.0545438 13.4777 0.0170799 13.6606C-0.0203839 13.8435 0.00418758 14.0338 0.0868108 14.2008C0.169434 14.3677 0.305265 14.5015 0.472283 14.5804L11.6464 20.1058C11.7578 20.1607 11.8801 20.1893 12.0041 20.1893C12.128 20.1893 12.2503 20.1607 12.3618 20.1058L23.5359 14.5804C23.6331 14.5331 23.7201 14.4667 23.7919 14.3852C23.8637 14.3037 23.9189 14.2086 23.9544 14.1054C23.9899 14.0022 24.0049 13.8929 23.9986 13.7838C23.9923 13.6747 23.9648 13.5679 23.9177 13.4696C23.8707 13.3713 23.8049 13.2834 23.7242 13.2109C23.6435 13.1384 23.5495 13.0828 23.4475 13.0472C23.3456 13.0117 23.2377 12.9969 23.1301 13.0037C23.0225 13.0105 22.9173 13.0387 22.8205 13.0868L12.0041 18.4396L1.1877 13.0868C1.0662 13.0256 0.931558 12.9959 0.795923 13.0005Z" fill="#89D764"/>
<path d="M11.9019 3.00642C11.8068 3.01877 11.7145 3.04799 11.6294 3.09275L0.455252 8.89439C0.321082 8.96387 0.208455 9.06956 0.1298 9.19982C0.0511457 9.33008 0.00952148 9.47985 0.00952148 9.63257C0.00952148 9.78529 0.0511457 9.93504 0.1298 10.0653C0.208455 10.1956 0.321082 10.3013 0.455252 10.3707L11.6294 16.1724C11.7452 16.2329 11.8737 16.2645 12.0041 16.2645C12.1345 16.2645 12.263 16.2329 12.3788 16.1724L23.5529 10.3707C23.6871 10.3013 23.7997 10.1956 23.8784 10.0653C23.957 9.93504 23.9987 9.78529 23.9987 9.63257C23.9987 9.47985 23.957 9.33008 23.8784 9.19982C23.7997 9.06956 23.6871 8.96387 23.5529 8.89439L12.3788 3.09275C12.2321 3.01579 12.0658 2.98569 11.9019 3.00642ZM12.0041 4.76763L21.3811 9.63687L12.0041 14.4975L2.62706 9.63687L12.0041 4.76763Z" fill="#A7BED3"/>
<path d="M0.6 3.60005H2.4V5.40005C2.4 5.73125 2.6688 6.00005 3 6.00005C3.3312 6.00005 3.6 5.73125 3.6 5.40005V3.60005H5.4C5.7312 3.60005 6 3.33125 6 3.00005C6 2.66885 5.7312 2.40005 5.4 2.40005H3.6V0.600046C3.6 0.268846 3.3312 4.57764e-05 3 4.57764e-05C2.6688 4.57764e-05 2.4 0.268846 2.4 0.600046V2.40005H0.6C0.2688 2.40005 0 2.66885 0 3.00005C0 3.33125 0.2688 3.60005 0.6 3.60005Z" fill="#A7BED3"/>
</svg>
