<svg width="24" height="24" viewBox="0 0 24 24" fill="none" xmlns="http://www.w3.org/2000/svg">
<path d="M23.0769 5.53847H0.923077C0.413538 5.53847 0 5.95201 0 6.46154V23.0769C0 23.5865 0.413538 24 0.923077 24H23.0769C23.5865 24 24 23.5865 24 23.0769V6.46154C24 5.95201 23.5865 5.53847 23.0769 5.53847ZM22.1538 22.1539H1.84615V7.38462H22.1538V22.1539Z" fill="#A7BED3"/>
<path d="M2.76927 4.61538H21.2308C21.7403 4.61538 22.1539 4.20184 22.1539 3.6923C22.1539 3.18276 21.7403 2.76923 21.2308 2.76923H2.76927C2.25973 2.76923 1.84619 3.18276 1.84619 3.6923C1.84619 4.20184 2.25973 4.61538 2.76927 4.61538Z" fill="#A7BED3"/>
<path d="M4.61534 1.84615H19.3846C19.8941 1.84615 20.3076 1.43262 20.3076 0.923077C20.3076 0.413538 19.8941 0 19.3846 0H4.61534C4.1058 0 3.69226 0.413538 3.69226 0.923077C3.69226 1.43262 4.1058 1.84615 4.61534 1.84615Z" fill="#A7BED3"/>
<path d="M8.30772 15.6923H11.077V18.4615C11.077 18.9711 11.4905 19.3846 12 19.3846C12.5096 19.3846 12.9231 18.9711 12.9231 18.4615V15.6923H15.6923C16.2019 15.6923 16.6154 15.2788 16.6154 14.7692C16.6154 14.2597 16.2019 13.8461 15.6923 13.8461H12.9231V11.0769C12.9231 10.5674 12.5096 10.1538 12 10.1538C11.4905 10.1538 11.077 10.5674 11.077 11.0769V13.8461H8.30772C7.79818 13.8461 7.38464 14.2597 7.38464 14.7692C7.38464 15.2788 7.79818 15.6923 8.30772 15.6923Z" fill="#A7BED3"/>
</svg>
