<svg width="24" height="24" viewBox="0 0 24 24" fill="none" xmlns="http://www.w3.org/2000/svg">
<path d="M23.296 5.36533L18.6347 0.704C18.4117 0.480757 18.1469 0.303669 17.8554 0.182869C17.564 0.0620686 17.2515 -7.28611e-05 16.936 6.41108e-08H2.4C1.76348 6.41108e-08 1.15303 0.252856 0.702944 0.702944C0.252856 1.15303 0 1.76348 0 2.4V21.6C0 22.2365 0.252856 22.847 0.702944 23.2971C1.15303 23.7471 1.76348 24 2.4 24H21.6C22.2365 24 22.847 23.7471 23.2971 23.2971C23.7471 22.847 24 22.2365 24 21.6V7.064C24.0001 6.74848 23.9379 6.43605 23.8171 6.14457C23.6963 5.8531 23.5192 5.5883 23.296 5.36533ZM13.8667 1.6V6.13333C13.8667 6.20406 13.8386 6.27189 13.7886 6.3219C13.7386 6.37191 13.6707 6.4 13.6 6.4H5.6C5.52928 6.4 5.46145 6.37191 5.41144 6.3219C5.36143 6.27189 5.33333 6.20406 5.33333 6.13333V1.6H13.8667ZM5.33333 22.4V14.9333C5.33333 14.8626 5.36143 14.7948 5.41144 14.7448C5.46145 14.6948 5.52928 14.6667 5.6 14.6667H18.4C18.4707 14.6667 18.5386 14.6948 18.5886 14.7448C18.6386 14.7948 18.6667 14.8626 18.6667 14.9333V22.4H5.33333ZM22.4 21.6C22.4 21.8122 22.3157 22.0157 22.1657 22.1657C22.0157 22.3157 21.8122 22.4 21.6 22.4H20.2667V14.9333C20.2667 14.4383 20.07 13.9635 19.7199 13.6134C19.3699 13.2633 18.8951 13.0667 18.4 13.0667H5.6C5.10493 13.0667 4.63014 13.2633 4.28007 13.6134C3.93 13.9635 3.73333 14.4383 3.73333 14.9333V22.4H2.4C2.18783 22.4 1.98434 22.3157 1.83431 22.1657C1.68429 22.0157 1.6 21.8122 1.6 21.6V2.4C1.6 2.18783 1.68429 1.98434 1.83431 1.83431C1.98434 1.68429 2.18783 1.6 2.4 1.6H3.73333V6.13333C3.73333 6.6284 3.93 7.1032 4.28007 7.45327C4.63014 7.80333 5.10493 8 5.6 8H13.6C14.0951 8 14.5699 7.80333 14.9199 7.45327C15.27 7.1032 15.4667 6.6284 15.4667 6.13333V1.6H16.936C17.0415 1.59974 17.146 1.62034 17.2434 1.66062C17.3409 1.70089 17.4295 1.76004 17.504 1.83467L22.1653 6.496C22.24 6.57053 22.2991 6.65909 22.3394 6.75657C22.3797 6.85405 22.4003 6.95853 22.4 7.064V21.6Z" fill="#A7BED3"/>
</svg>
