<svg width="24" height="24" viewBox="0 0 24 24" fill="none" xmlns="http://www.w3.org/2000/svg">
<path d="M12 0C5.38338 0 0 5.38338 0 12C0 18.6171 5.38338 24 12 24C18.6171 24 24 18.6171 24 12C24 5.38338 18.6171 0 12 0ZM12 22.1538C6.40108 22.1538 1.84615 17.5989 1.84615 12C1.84615 6.40108 6.40108 1.84615 12 1.84615C17.5989 1.84615 22.1538 6.40108 22.1538 12C22.1538 17.5989 17.5989 22.1538 12 22.1538Z" fill="#A7BED3"/>
<path d="M19.3847 11.0769H12.9232V4.61537C12.9232 4.10583 12.5096 3.69229 12.0001 3.69229C11.4905 3.69229 11.077 4.10583 11.077 4.61537V11.0769H4.61546C4.10592 11.0769 3.69238 11.4904 3.69238 12C3.69238 12.5095 4.10592 12.9231 4.61546 12.9231H11.077V19.3846C11.077 19.8941 11.4905 20.3077 12.0001 20.3077C12.5096 20.3077 12.9232 19.8941 12.9232 19.3846V12.9231H19.3847C19.8942 12.9231 20.3078 12.5095 20.3078 12C20.3078 11.4904 19.8942 11.0769 19.3847 11.0769Z" fill="#A7BED3"/>
</svg>
