<svg width="24" height="24" viewBox="0 0 24 24" fill="none" xmlns="http://www.w3.org/2000/svg">
<path d="M16.5483 16.7498H7.45151C6.99949 16.7498 6.63306 17.1163 6.63306 17.5683C6.63306 18.0203 6.99949 18.3867 7.45151 18.3867H16.5483C17.0003 18.3867 17.3668 18.0203 17.3668 17.5683C17.3668 17.1163 17.0003 16.7498 16.5483 16.7498Z" fill="#A7BED3"/>
<path d="M16.5488 20.4687H7.45105C6.99929 20.4687 6.63306 20.8349 6.63306 21.2867C6.63306 21.7384 6.99928 22.1047 7.45105 22.1047H16.5488C17.0005 22.1047 17.3668 21.7384 17.3668 21.2867C17.3668 20.8349 17.0005 20.4687 16.5488 20.4687Z" fill="#A7BED3"/>
<path d="M23.005 4.37827L20.1146 1.12193C19.5656 0.504866 18.4428 0 17.6179 0H17.285V5.85332H6.71592V0H1.49988C0.675914 0 0 0.674994 0 1.49988V22.5001C0 23.3241 0.674994 24 1.49988 24H4.37551V14.8536H19.6263V24H22.501C23.325 24 24 23.325 24 22.5001V7.00008C24 6.17519 23.5531 4.99533 23.005 4.37827Z" fill="#A7BED3"/>
<path d="M14.494 4.86937C14.9455 4.86937 15.3124 4.50337 15.3124 4.05092V1.80155C15.3124 1.3491 14.9464 0.982178 14.494 0.982178C14.0415 0.982178 13.6755 1.34818 13.6755 1.80155V4.05092C13.6755 4.50337 14.0425 4.86937 14.494 4.86937Z" fill="#A7BED3"/>
</svg>
