<svg width="24" height="24" viewBox="0 0 24 24" fill="none" xmlns="http://www.w3.org/2000/svg">
<path d="M20.3268 0H3.67291C1.6352 0 0 1.63522 0 3.67296V20.327C0 22.3648 1.66036 24 3.67291 24H20.3268C22.3645 24 23.9997 22.3396 23.9997 20.327V3.67296C24.0249 1.63522 22.3645 0 20.3268 0ZM16.3295 15.3528C15.9383 15.7388 15.3088 15.7366 14.9201 15.348L13.9621 14.3899L13.308 13.761V19.3208V19.5283C13.308 20.0806 12.8603 20.5283 12.308 20.5283H11.6917C11.1394 20.5283 10.6917 20.0806 10.6917 19.5283V19.3208V13.761L9.08437 15.3684C8.69384 15.7589 8.06067 15.7589 7.67015 15.3684L7.22274 14.9209C6.83222 14.5304 6.83222 13.8973 7.22274 13.5067L10.3143 10.4151L11.5219 9.20755C11.7859 8.94356 12.2139 8.94356 12.4778 9.20755L13.8615 10.5912L15.8237 12.5535L16.7722 13.5019C17.1645 13.8943 17.1624 14.5312 16.7673 14.9209L16.3295 15.3528ZM17.8363 6.11321H6.16345V3.4717H17.8614V6.11321H17.8363Z" fill="#A7BED3"/>
</svg>
