<svg width="24" height="24" viewBox="0 0 24 24" fill="none" xmlns="http://www.w3.org/2000/svg">
<path d="M21.1958 0H7.45263C5.91158 0 4.64842 1.26183 4.64842 2.80126V4.64353H2.80421C1.26316 4.64353 0 5.90536 0 7.4448V21.1987C0 22.7382 1.26316 24 2.80421 24H16.5474C18.0884 24 19.3516 22.7382 19.3516 21.1987V19.3565H21.1958C22.7368 19.3565 24 18.0946 24 16.5552V2.80126C24 1.26183 22.7368 0 21.1958 0ZM10.7116 19.3817C10.7116 19.9621 10.2568 20.4164 9.67579 20.4164C9.39789 20.4164 9.12 20.2902 8.94316 20.1136C8.76632 19.9369 8.64 19.6593 8.64 19.3817V15.3438H4.59789C4.32 15.3438 4.04211 15.2177 3.86526 15.041C3.68842 14.8644 3.56211 14.5868 3.56211 14.3091C3.56211 13.7287 4.01684 13.2744 4.59789 13.2744H8.64V9.23659C8.64 8.65615 9.09474 8.20189 9.67579 8.20189C10.2568 8.20189 10.7116 8.65615 10.7116 9.23659V13.2744H14.7537C15.3347 13.2744 15.7895 13.7287 15.7895 14.3091C15.7895 14.8896 15.3347 15.3438 14.7537 15.3438H10.7116V19.3817ZM21.9284 16.53C21.9284 16.9338 21.6 17.2618 21.1958 17.2618H19.3516V7.4448C19.3516 5.90536 18.0884 4.64353 16.5474 4.64353H6.69474V2.80126C6.69474 2.39748 7.02316 2.0694 7.42737 2.0694H21.1958C21.6 2.0694 21.9284 2.39748 21.9284 2.80126V16.53Z" fill="#A7BED3"/>
</svg>
