<svg width="24" height="24" viewBox="0 0 24 24" fill="none" xmlns="http://www.w3.org/2000/svg">
<rect width="24" height="24" rx="2" fill="#2B5278"/>
<path d="M20.9797 19.9592H4.04107V3.02053C4.04107 2.45707 3.584 2 3.02053 2C2.45707 2 2 2.45707 2 3.02053V20C2 21.1046 2.89543 22 4 22H20.9795C21.5429 22 22 21.5429 22 20.9795C22 20.416 21.5429 19.9592 20.9797 19.9592Z" fill="#65B9F4"/>
<path d="M7.83334 17.8333C8.75381 17.8333 9.50001 17.0871 9.50001 16.1667C9.50001 15.2462 8.75381 14.5 7.83334 14.5C6.91286 14.5 6.16667 15.2462 6.16667 16.1667C6.16667 17.0871 6.91286 17.8333 7.83334 17.8333Z" fill="#65B9F4"/>
<path d="M11.1667 12.8333C12.5474 12.8333 13.6667 11.714 13.6667 10.3333C13.6667 8.95262 12.5474 7.83333 11.1667 7.83333C9.78596 7.83333 8.66667 8.95262 8.66667 10.3333C8.66667 11.714 9.78596 12.8333 11.1667 12.8333Z" fill="#65B9F4"/>
<path d="M19.5 6.16666C20.4205 6.16666 21.1667 5.42047 21.1667 4.49999C21.1667 3.57952 20.4205 2.83333 19.5 2.83333C18.5795 2.83333 17.8333 3.57952 17.8333 4.49999C17.8333 5.42047 18.5795 6.16666 19.5 6.16666Z" fill="#65B9F4"/>
<path d="M17.8333 10.3333C18.7538 10.3333 19.5 9.58714 19.5 8.66667C19.5 7.74619 18.7538 7 17.8333 7C16.9129 7 16.1667 7.74619 16.1667 8.66667C16.1667 9.58714 16.9129 10.3333 17.8333 10.3333Z" fill="#65B9F4"/>
</svg>
