<svg width="24" height="24" viewBox="0 0 24 24" fill="none" xmlns="http://www.w3.org/2000/svg">
<rect width="24" height="24" rx="2" fill="#2B5278"/>
<path d="M20.9797 19.9592H4.04107V3.02053C4.04107 2.45707 3.584 2 3.02053 2C2.45707 2 2 2.45707 2 3.02053V20C2 21.1046 2.89543 22 4 22H20.9795C21.5429 22 22 21.5429 22 20.9795C22 20.416 21.5429 19.9592 20.9797 19.9592Z" fill="#65B9F4"/>
<path d="M21.6517 5.88564C21.1872 5.39884 20.4351 5.39884 19.9707 5.88564L14.1677 11.9673L11.0216 8.66973L6.51499 13.3936C6.05054 13.8804 6.05054 14.6687 6.51499 15.1555C6.74706 15.3988 7.05121 15.5205 7.35535 15.5205C7.6595 15.5205 7.96364 15.3988 8.19571 15.1555L11.0212 12.194L14.1674 15.4916L21.6514 7.64792C22.1161 7.16111 22.1161 6.37245 21.6517 5.88564Z" fill="#65B9F4"/>
</svg>
