<svg width="24" height="24" viewBox="0 0 24 24" fill="none" xmlns="http://www.w3.org/2000/svg">
<path fill-rule="evenodd" clip-rule="evenodd" d="M4 4V20H20V4H4ZM3.66667 2C2.74619 2 2 2.74619 2 3.66667V20.3333C2 21.2538 2.74619 22 3.66667 22H20.3333C21.2538 22 22 21.2538 22 20.3333V3.66667C22 2.74619 21.2538 2 20.3333 2H3.66667Z" fill="#A7BED3"/>
<path d="M17 7H6.99999C6.53975 7 6.16666 7.3731 6.16666 7.83333C6.16666 8.29357 6.53975 8.66667 6.99999 8.66667H17C17.4602 8.66667 17.8333 8.29357 17.8333 7.83333C17.8333 7.3731 17.4602 7 17 7Z" fill="#A7BED3"/>
<path d="M17 11.1667H6.99999C6.53975 11.1667 6.16666 11.5398 6.16666 12C6.16666 12.4602 6.53975 12.8333 6.99999 12.8333H17C17.4602 12.8333 17.8333 12.4602 17.8333 12C17.8333 11.5398 17.4602 11.1667 17 11.1667Z" fill="#A7BED3"/>
<path d="M17 15.3333H6.99999C6.53975 15.3333 6.16666 15.7064 6.16666 16.1667C6.16666 16.6269 6.53975 17 6.99999 17H17C17.4602 17 17.8333 16.6269 17.8333 16.1667C17.8333 15.7064 17.4602 15.3333 17 15.3333Z" fill="#A7BED3"/>
</svg>
