<svg width="28" height="28" viewBox="0 0 28 28" fill="none" xmlns="http://www.w3.org/2000/svg">
<path d="M21.4175 8.0706C22.2328 8.0706 22.8999 7.40354 22.8999 6.58825C22.8999 5.77296 22.2328 5.1059 21.4175 5.1059H6.59402C5.77872 5.1059 5.11166 5.77296 5.11166 6.58825C5.11166 7.40354 5.77872 8.0706 6.59402 8.0706H21.4175ZM12.5234 21.4118C12.5234 22.2271 13.1905 22.8941 14.0058 22.8941C14.8211 22.8941 15.4881 22.2271 15.4881 21.4118V12.7647C15.4881 11.9494 14.8211 11.2824 14.0058 11.2824C13.1905 11.2824 12.5234 11.9494 12.5234 12.7647V21.4118Z" fill="#65B9F4"/>
<path fill-rule="evenodd" clip-rule="evenodd" d="M27.1765 0.823529H0.823529V27.1765H27.1765V0.823529ZM0 0V28H28V0H0Z" fill="#65B9F4"/>
</svg>
